<svg width="29" height="32" viewBox="0 0 29 32" fill="none" xmlns="http://www.w3.org/2000/svg">
<path d="M28.0315 11.3571H24.6522C24.6522 11.2756 24.6522 11.2164 24.6522 11.1571V10.3718C24.6601 10.3145 24.6475 10.2564 24.6162 10.2058C24.5848 10.1553 24.5364 10.1148 24.4778 10.0903C23.6475 9.57169 22.7757 9.03828 21.9288 8.49747L15.9756 4.79325C15.884 4.74296 15.7953 4.68856 15.7099 4.63027V13.5722H12.3056V4.68213L12.0565 4.80066C11.1183 5.37852 10.205 5.95638 9.25843 6.53423C7.38196 7.71217 5.50548 8.8753 3.64561 10.0532C3.64561 10.0532 3.55427 10.1125 3.51276 10.1273C3.47538 10.1481 3.44538 10.178 3.42627 10.2134C3.40716 10.2488 3.39972 10.2883 3.40482 10.3274V11.1126C3.41705 11.1789 3.41705 11.2464 3.40482 11.3127H0.000589185C0.000589185 11.2534 0.000589185 11.1719 0.000589185 11.1126V8.80121C-0.00340632 8.7337 0.0129756 8.66646 0.0480261 8.60652C0.0830766 8.54658 0.135511 8.49613 0.199861 8.46043C2.03482 7.32694 3.86979 6.17122 5.70475 5.03032L13.5594 0.118535L13.7587 0C13.8251 0.0814927 13.8915 0.14076 13.9828 0.23707C14.0496 0.152324 14.1246 0.0729936 14.207 0C14.2485 0 14.315 0.0592674 14.3648 0.0740843L25.2334 6.88984C26.0637 7.40843 26.894 7.94184 27.7243 8.46043C27.805 8.50339 27.8704 8.56584 27.913 8.64056C27.9556 8.71528 27.9737 8.79922 27.9651 8.88271C27.9651 9.62355 27.9651 10.3644 27.9651 11.1052C28.0023 11.1855 28.0247 11.2705 28.0315 11.3571V11.3571Z" fill="white"/>
<path d="M3.33922 12.0384C3.33922 12.1536 3.33922 12.2442 3.33922 12.3265V20.4017C3.3337 20.4854 3.35173 20.569 3.39132 20.6431C3.4309 20.7172 3.49048 20.779 3.5634 20.8215C6.38642 22.7724 9.17623 24.7315 11.9993 26.6577C12.0845 26.7152 12.1732 26.7675 12.2649 26.8141V14.6807C12.4476 14.6149 15.4201 14.6149 15.6692 14.6807V26.7894C15.802 26.7894 15.8435 26.7894 15.91 26.6824C16.7403 26.1062 17.5706 25.5464 18.4009 24.9702L24.3541 20.8544C24.6862 20.6322 24.6198 20.7474 24.6198 20.3194V12.0219C24.993 11.9974 25.3675 11.9974 25.7407 12.0219H27.9991C27.9991 12.1289 27.9991 12.1948 27.9991 12.2853V22.1633C28.004 22.2384 27.9881 22.3134 27.9529 22.3802C27.9178 22.447 27.8648 22.5029 27.7999 22.5419C27.0194 23.0687 26.2555 23.6285 25.475 24.1882C21.8051 26.74 18.1103 29.2918 14.4486 31.8436L14.2245 32C14.158 31.9095 14.0667 31.8436 14.0003 31.7531C13.9326 31.8414 13.8576 31.924 13.7761 32L13.5934 31.8683L3.80419 25.0361L0.250508 22.5666C0.168284 22.5158 0.101619 22.4438 0.0577173 22.3582C0.0138155 22.2726 -0.00565244 22.1767 0.00141771 22.0809V12.0631C1.1125 11.9882 2.22714 11.98 3.33922 12.0384V12.0384Z" fill="white"/>
</svg>
